<svg width="1440" height="360" viewBox="0 0 1440 360" fill="none" xmlns="http://www.w3.org/2000/svg">
<mask id="mask0_1_2" style="mask-type:luminance" maskUnits="userSpaceOnUse" x="0" y="4" width="1437" height="352">
<path d="M1436.51 4.73682H0V355.263H1436.51V4.73682Z" fill="white"/>
</mask>
<g mask="url(#mask0_1_2)">
<mask id="mask1_1_2" style="mask-type:luminance" maskUnits="userSpaceOnUse" x="0" y="52" width="1437" height="256">
<path d="M1436.51 52.1052H0V307.895H1436.51V52.1052Z" fill="white"/>
</mask>
<g mask="url(#mask1_1_2)">
<path d="M93.4917 190.915V223.81C93.4917 223.81 47.4346 223.443 21.6662 189.453C-4.10225 155.461 0.282719 134.626 0.282719 116.803V70.7458C0.282719 55.1188 5.76843 52.1052 26.8752 52.1052C47.9819 52.1052 89.9609 55.8827 119.814 89.1158C147.231 119.636 153.077 141.447 153.077 179.342V271.696C153.077 278.277 155.453 277.044 179.579 269.368C203.705 261.693 250.857 233.867 267.032 191.1C283.206 148.334 278.273 110.499 278.273 110.499C278.273 110.499 241.263 112.141 216.319 137.368C191.374 162.596 192.74 179.04 194.388 225.098L160.945 244.286C160.945 244.286 157.107 187.54 166.701 156.009C176.295 124.484 205.083 98.4391 232.77 87.7443C260.457 77.0496 276.908 78.9744 293.63 78.9744C310.352 78.9744 310.629 83.636 310.629 98.7158C310.629 113.795 311.453 154.367 302.953 185.897C294.454 217.423 270.057 249.772 245.931 270.884C221.805 291.997 176.295 307.895 147.513 307.895C118.731 307.895 119.548 307.895 119.548 295.281V193.025C119.548 141.212 114.616 131.341 97.3412 112.424C80.0723 93.5067 53.7504 85.8315 33.7383 86.3789V139.017C33.7383 157.657 53.4797 189.368 93.5037 190.92L93.4917 190.915Z" fill="url(#paint0_linear_1_2)"/>
<path d="M379.787 239.684V135.761H401.951L403.833 153.326C407.179 147.192 411.848 142.313 417.843 138.688C423.977 135.064 431.086 133.252 439.171 133.252C447.814 133.252 455.133 135.064 461.127 138.688C467.122 142.173 471.721 147.401 474.928 154.371C478.134 161.342 479.737 169.984 479.737 180.299V239.684H454.645V182.6C454.645 173.539 452.693 166.569 448.79 161.689C445.026 156.81 439.241 154.371 431.434 154.371C426.277 154.371 421.676 155.626 417.634 158.135C413.731 160.505 410.594 164.06 408.225 168.799C405.994 173.4 404.879 178.976 404.879 185.527V239.684H379.787ZM544.258 242.194C535.894 242.194 528.645 240.452 522.511 236.966C516.517 233.482 511.917 228.254 508.711 221.283C505.504 214.174 503.901 205.461 503.901 195.146V135.761H528.785V192.637C528.785 201.977 530.666 209.086 534.43 213.965C538.333 218.705 544.188 221.075 551.995 221.075C557.153 221.075 561.753 219.82 565.796 217.311C569.838 214.802 572.975 211.247 575.205 206.647C577.575 202.046 578.76 196.401 578.76 189.71V135.761H603.853V239.684H581.479L579.805 221.911C576.459 228.045 571.72 232.993 565.586 236.757C559.592 240.381 552.482 242.194 544.258 242.194ZM631.362 239.684V135.761H653.736L656.036 155.207C658.545 150.747 661.612 146.843 665.236 143.498C669 140.152 673.322 137.643 678.201 135.97C683.08 134.158 688.517 133.252 694.511 133.252V159.598H687.401C682.941 159.598 678.828 160.156 675.064 161.271C671.3 162.247 668.024 163.92 665.236 166.29C662.448 168.66 660.288 171.866 658.754 175.908C657.221 179.952 656.454 184.97 656.454 190.964V239.684H631.362ZM758.418 239.684C751.448 239.684 745.314 238.569 740.017 236.339C734.719 234.109 730.607 230.414 727.679 225.257C724.891 220.099 723.498 213.129 723.498 204.346V156.671H705.515V135.761H723.498L726.425 108.369H748.59V135.761H777.028V156.671H748.59V204.346C748.59 209.644 749.705 213.338 751.936 215.429C754.166 217.38 758.069 218.356 763.645 218.356H776.191V239.684H758.418ZM838.716 242.194C830.352 242.194 823.103 240.452 816.97 236.966C810.975 233.482 806.375 228.254 803.168 221.283C799.963 214.174 798.36 205.461 798.36 195.146V135.761H823.242V192.637C823.242 201.977 825.125 209.086 828.888 213.965C832.792 218.705 838.646 221.075 846.453 221.075C851.61 221.075 856.211 219.82 860.253 217.311C864.296 214.802 867.432 211.247 869.663 206.647C872.033 202.046 873.218 196.401 873.218 189.71V135.761H898.31V239.684H875.936L874.264 221.911C870.918 228.045 866.178 232.993 860.045 236.757C854.05 240.381 846.941 242.194 838.716 242.194ZM925.82 239.684V135.761H948.193L950.495 155.207C953.005 150.747 956.075 146.843 959.694 143.498C963.455 140.152 967.784 137.643 972.663 135.97C977.542 134.158 982.97 133.252 988.967 133.252V159.598H981.862C977.4 159.598 973.288 160.156 969.518 161.271C965.757 162.247 962.479 163.92 959.694 166.29C956.908 168.66 954.748 171.866 953.214 175.908C951.679 179.952 950.911 184.97 950.911 190.964V239.684H925.82ZM1054.81 242.194C1044.49 242.194 1035.29 239.964 1027.21 235.503C1019.26 230.902 1012.99 224.559 1008.39 216.475C1003.93 208.389 1001.7 199.05 1001.7 188.454C1001.7 177.442 1003.93 167.823 1008.39 159.598C1012.85 151.374 1019.06 144.962 1027 140.361C1035.09 135.621 1044.43 133.252 1055.02 133.252C1065.33 133.252 1074.33 135.482 1082 139.943C1089.66 144.404 1095.58 150.468 1099.77 158.135C1104.09 165.663 1106.25 174.166 1106.25 183.645C1106.25 185.039 1106.25 186.643 1106.25 188.454C1106.25 190.127 1106.19 191.871 1106.04 193.682H1019.89V177.581H1080.95C1080.53 170.193 1077.88 164.338 1073 160.017C1068.26 155.695 1062.27 153.534 1055.02 153.534C1049.86 153.534 1045.05 154.719 1040.59 157.09C1036.27 159.459 1032.78 162.945 1030.14 167.545C1027.63 172.005 1026.37 177.721 1026.37 184.69V190.755C1026.37 197.167 1027.63 202.673 1030.14 207.274C1032.65 211.874 1036.06 215.429 1040.38 217.938C1044.7 220.308 1049.51 221.493 1054.81 221.493C1060.52 221.493 1065.33 220.239 1069.24 217.729C1073.14 215.08 1076.07 211.665 1078.02 207.483H1103.32C1101.37 214.035 1098.16 219.959 1093.71 225.257C1089.25 230.414 1083.73 234.527 1077.19 237.593C1070.63 240.661 1063.17 242.194 1054.81 242.194ZM1129 239.684V135.761H1151.17L1153.26 149.98C1156.6 144.683 1160.99 140.571 1166.43 137.643C1172.01 134.716 1178.42 133.252 1185.67 133.252C1190.97 133.252 1195.78 133.948 1200.1 135.343C1204.42 136.597 1208.18 138.619 1211.39 141.407C1214.73 144.195 1217.52 147.68 1219.75 151.862C1223.52 146.007 1228.53 141.476 1234.81 138.27C1241.21 134.924 1248.19 133.252 1255.72 133.252C1264.5 133.252 1271.96 135.064 1278.09 138.688C1284.37 142.173 1289.1 147.401 1292.31 154.371C1295.66 161.342 1297.33 169.984 1297.33 180.299V239.684H1272.45V182.6C1272.45 173.539 1270.63 166.569 1267.01 161.689C1263.38 156.81 1257.94 154.371 1250.7 154.371C1245.68 154.371 1241.29 155.626 1237.53 158.135C1233.76 160.644 1230.83 164.199 1228.75 168.799C1226.65 173.4 1225.6 179.045 1225.6 185.736V239.684H1200.72V182.6C1200.72 173.539 1198.91 166.569 1195.29 161.689C1191.66 156.81 1186.15 154.371 1178.76 154.371C1174.03 154.371 1169.77 155.626 1166.01 158.135C1162.25 160.505 1159.32 164.06 1157.23 168.799C1155.14 173.4 1154.09 179.045 1154.09 185.736V239.684H1129ZM1372.55 242.194C1362.23 242.194 1353.03 239.964 1344.95 235.503C1337 230.902 1330.73 224.559 1326.13 216.475C1321.66 208.389 1319.44 199.05 1319.44 188.454C1319.44 177.442 1321.66 167.823 1326.13 159.598C1330.59 151.374 1336.79 144.962 1344.74 140.361C1352.82 135.621 1362.16 133.252 1372.76 133.252C1383.07 133.252 1392.06 135.482 1399.73 139.943C1407.4 144.404 1413.32 150.468 1417.51 158.135C1421.83 165.663 1423.99 174.166 1423.99 183.645C1423.99 185.039 1423.99 186.643 1423.99 188.454C1423.99 190.127 1423.91 191.871 1423.78 193.682H1337.63V177.581H1398.69C1398.27 170.193 1395.62 164.338 1390.74 160.017C1386 155.695 1380 153.534 1372.76 153.534C1367.6 153.534 1362.79 154.719 1358.33 157.09C1354.01 159.459 1350.52 162.945 1347.88 167.545C1345.37 172.005 1344.11 177.721 1344.11 184.69V190.755C1344.11 197.167 1345.37 202.673 1347.88 207.274C1350.38 211.874 1353.8 215.429 1358.12 217.938C1362.44 220.308 1367.25 221.493 1372.55 221.493C1378.26 221.493 1383.07 220.239 1386.98 217.729C1390.88 215.08 1393.81 211.665 1395.76 207.483H1421.06C1419.11 214.035 1415.9 219.959 1411.44 225.257C1406.98 230.414 1401.47 234.527 1394.92 237.593C1388.37 240.661 1380.91 242.194 1372.55 242.194Z" fill="black"/>
</g>
</g>
<defs>
<linearGradient id="paint0_linear_1_2" x1="108.873" y1="161.579" x2="167.218" y2="184.737" gradientUnits="userSpaceOnUse">
<stop stop-color="#65FEFD"/>
<stop offset="1" stop-color="#66A3FE"/>
</linearGradient>
</defs>
</svg>
